<svg width="170" height="46" viewBox="0 0 170 46" fill="none" xmlns="http://www.w3.org/2000/svg">
<path d="M50.5504 37.1637C48.719 37.1637 47.0983 36.8993 45.6886 36.3708C44.2919 35.8291 43.139 35.0958 42.2299 34.171C41.3208 33.233 40.6421 32.1231 40.1942 30.8415C39.7462 29.5599 39.5223 28.1661 39.5223 26.6598C39.5223 25.2858 39.7924 23.9778 40.3326 22.7358C40.8859 21.4938 41.6304 20.4038 42.5658 19.4657C43.5277 18.5012 44.7201 17.7349 46.1431 17.1668C47.5792 16.5854 49.1603 16.2947 50.8864 16.2947C53.3108 16.2947 55.2279 16.7571 56.6376 17.682C58.0474 18.5937 58.7524 19.829 58.7524 21.3881C58.7524 22.3393 58.5021 23.1057 58.0014 23.687C57.5007 24.2684 56.6376 24.559 55.4123 24.559C54.4241 24.559 53.5941 24.3213 52.9221 23.8456C52.2632 23.3699 51.9339 22.749 51.9339 21.9826C51.9339 21.3352 52.0393 20.6944 52.2502 20.0602C52.4609 19.4261 52.5861 18.9439 52.6256 18.6135C52.4807 18.3756 52.2962 18.1973 52.0722 18.0784C51.8482 17.9462 51.4991 17.8802 51.0248 17.8802C50.4318 17.8802 49.8916 18.019 49.4041 18.2964C48.9167 18.5738 48.462 19.0627 48.0404 19.7629C47.632 20.4236 47.3026 21.3088 47.0522 22.4186C46.815 23.5284 46.6965 24.863 46.6965 26.422C46.6965 28.7738 47.2432 30.6697 48.3369 32.1099C49.4437 33.5501 50.7612 34.2701 52.2897 34.2701C53.7521 34.2701 54.9116 33.9464 55.7681 33.299C56.6376 32.6383 57.4084 31.7068 58.0805 30.5046L59.5627 31.5352C59.1543 32.3411 58.6667 33.081 58.1002 33.7548C57.5336 34.4154 56.855 35.0034 56.0645 35.5186C55.2345 36.0603 54.3912 36.47 53.5347 36.7474C52.6783 37.0248 51.6835 37.1637 50.5504 37.1637ZM78.5185 19.2081C79.4935 20.1197 80.2379 21.2098 80.7519 22.4782C81.2656 23.7465 81.5227 25.1206 81.5227 26.6003C81.5227 28.0669 81.2656 29.4542 80.7519 30.7622C80.2512 32.057 79.5133 33.1668 78.5382 34.0917C77.4974 35.0827 76.2523 35.8424 74.8029 36.3708C73.3667 36.8993 71.7197 37.1637 69.862 37.1637C68.2546 37.1637 66.7722 36.9324 65.4152 36.47C64.0712 36.0076 62.8788 35.3139 61.8379 34.389C60.8365 33.5038 60.046 32.4138 59.4662 31.119C58.8865 29.811 58.5967 28.351 58.5967 26.7391C58.5967 25.1536 58.847 23.7465 59.3477 22.5178C59.8616 21.2758 60.6258 20.1726 61.6402 19.2081C62.6153 18.2832 63.8143 17.5697 65.2372 17.0676C66.6734 16.5524 68.2743 16.2947 70.0398 16.2947C71.8845 16.2947 73.5051 16.5524 74.9017 17.0676C76.3116 17.5697 77.5171 18.2832 78.5185 19.2081ZM73.459 32.9422C73.7488 32.2024 73.9597 31.3039 74.0914 30.2469C74.2364 29.19 74.3089 27.9612 74.3089 26.5607C74.3089 25.6358 74.2429 24.5789 74.1112 23.3898C73.9794 22.2007 73.7819 21.2625 73.5182 20.5755C73.2021 19.7432 72.7607 19.0892 72.1941 18.6135C71.6407 18.1378 70.9359 17.9001 70.0794 17.9001C69.144 17.9001 68.3929 18.1577 67.8263 18.673C67.2729 19.1882 66.8447 19.8555 66.5416 20.6746C66.265 21.4277 66.074 22.313 65.9685 23.3302C65.8631 24.3344 65.8103 25.3848 65.8103 26.4814C65.8103 27.9216 65.8565 29.1173 65.9488 30.0686C66.0409 31.0067 66.265 31.9513 66.6207 32.9026C66.9237 33.7218 67.3586 34.3692 67.9251 34.8449C68.4918 35.3204 69.2098 35.5583 70.0794 35.5583C70.8699 35.5583 71.5485 35.3403 72.1151 34.9042C72.6816 34.4551 73.1297 33.8011 73.459 32.9422Z" fill="#FEFBF9"/>
<path d="M96.5652 37.2824C94.5097 37.2824 92.5862 36.9522 90.7942 36.2916C89.0023 35.6178 87.441 34.6466 86.1102 33.3783C84.8058 32.1363 83.778 30.6036 83.027 28.7804C82.2761 26.9438 81.9005 24.929 81.9005 22.7358C81.9005 20.5558 82.2761 18.5408 83.027 16.6911C83.7912 14.8282 84.8585 13.2163 86.2287 11.8554C87.5727 10.521 89.1867 9.4904 91.0709 8.76372C92.955 8.02382 94.9709 7.65389 97.1186 7.65389C98.6734 7.65389 100.09 7.84546 101.368 8.22862C102.646 8.59856 103.726 9.02136 104.609 9.497L105.834 8.40699H107.554L107.732 18.673H105.993C105.004 15.5416 103.819 13.2427 102.435 11.7761C101.052 10.3096 99.3651 9.57627 97.3756 9.57627C94.8984 9.57627 93.0143 10.6729 91.7231 12.8661C90.4319 15.0462 89.7863 18.1114 89.7863 22.0619C89.7863 24.2948 90.0036 26.204 90.4385 27.7894C90.8864 29.3617 91.4662 30.63 92.1776 31.5945C92.9418 32.5987 93.8444 33.3386 94.8853 33.8143C95.9261 34.2768 97.079 34.508 98.3439 34.508C100.189 34.508 101.829 34.0059 103.265 33.0017C104.714 31.9976 106.032 30.4781 107.218 28.4434L108.917 29.4741C108.351 30.6367 107.705 31.6805 106.981 32.6053C106.256 33.5169 105.419 34.3031 104.471 34.9638C103.43 35.6904 102.277 36.2585 101.012 36.6681C99.7603 37.0777 98.2781 37.2824 96.5652 37.2824ZM120.225 36.5294H107.833V35.0827C108.175 35.0562 108.505 35.0232 108.821 34.9835C109.151 34.9439 109.44 34.8779 109.691 34.7853C110.112 34.6269 110.396 34.4022 110.541 34.1116C110.699 33.8077 110.778 33.4113 110.778 32.9225V10.9636C110.778 10.4615 110.672 9.99906 110.462 9.57627C110.264 9.14027 109.994 8.80996 109.651 8.58535C109.388 8.41359 108.986 8.24844 108.446 8.08989C107.919 7.93133 107.451 7.83886 107.042 7.81242V6.36568L116.984 5.8504L117.28 6.16749V32.6649C117.28 33.1537 117.366 33.5501 117.537 33.854C117.708 34.1578 117.985 34.3957 118.367 34.5674C118.631 34.6863 118.907 34.792 119.197 34.8845C119.487 34.9769 119.829 35.0431 120.225 35.0827V36.5294ZM145.505 36.1132L136.078 36.688L135.781 36.4105V33.8143H135.663C135.215 34.2239 134.773 34.6269 134.339 35.0232C133.917 35.4063 133.41 35.7565 132.817 36.0736C132.145 36.4304 131.506 36.6946 130.9 36.8663C130.307 37.0381 129.437 37.124 128.291 37.124C126.301 37.124 124.773 36.5228 123.706 35.3204C122.651 34.1182 122.124 32.4204 122.124 30.2271V21.3088C122.124 20.7935 122.026 20.3773 121.828 20.0602C121.63 19.7299 121.367 19.4393 121.038 19.1882C120.774 18.99 120.431 18.8513 120.01 18.772C119.588 18.6795 119.206 18.6201 118.863 18.5937V17.1469L128.449 16.6317L128.666 16.9289V30.1082C128.666 31.4691 128.923 32.4733 129.437 33.1207C129.964 33.768 130.682 34.0917 131.591 34.0917C132.527 34.0917 133.363 33.8473 134.101 33.3584C134.852 32.8696 135.4 32.3477 135.742 31.7928V21.1106C135.742 20.6614 135.656 20.2584 135.485 19.9018C135.313 19.545 135.064 19.2542 134.734 19.0296C134.497 18.8711 134.154 18.7654 133.706 18.7127C133.271 18.6598 132.823 18.6201 132.362 18.5937V17.1469L141.947 16.6317L142.244 16.9289V32.2288C142.244 32.6912 142.336 33.0876 142.521 33.4179C142.706 33.735 142.975 34.0059 143.332 34.2305C143.581 34.389 143.904 34.5013 144.299 34.5674C144.708 34.6203 145.11 34.6533 145.505 34.6664V36.1132ZM168.255 26.8381C168.255 29.811 167.273 32.2751 165.31 34.2305C163.361 36.1859 160.883 37.1637 157.88 37.1637C156.72 37.1637 155.719 37.0777 154.875 36.9059C154.046 36.7474 153.34 36.5492 152.761 36.3114C152.154 36.0603 151.667 35.816 151.299 35.5781C150.942 35.327 150.659 35.1223 150.449 34.9638L147.622 37.5402L146.456 37.0844C146.522 36.1199 146.575 35.0761 146.614 33.953C146.667 32.8168 146.694 31.2907 146.694 29.3749V10.8248C146.694 10.3228 146.587 9.86034 146.377 9.43755C146.18 9.00154 145.91 8.67123 145.567 8.44662C145.316 8.28808 144.948 8.14935 144.46 8.03044C143.986 7.91153 143.545 7.83886 143.136 7.81242V6.36568L152.899 5.8504L153.196 6.16749V19.0495H153.314C154.276 18.1114 155.264 17.4244 156.279 16.9883C157.293 16.5524 158.308 16.3343 159.322 16.3343C162.09 16.3343 164.27 17.2791 165.865 19.1685C167.458 21.0578 168.255 23.6144 168.255 26.8381ZM161.16 27.076C161.16 26.0718 161.082 25.1073 160.923 24.1825C160.778 23.2445 160.527 22.4186 160.172 21.7052C159.816 20.9917 159.348 20.4236 158.769 20.0008C158.189 19.5647 157.471 19.3468 156.615 19.3468C155.81 19.3468 155.145 19.479 154.619 19.7432C154.091 20.0074 153.617 20.3972 153.196 20.9124V32.4468C153.275 32.711 153.42 33.0611 153.63 33.4972C153.854 33.92 154.078 34.2502 154.302 34.4881C154.619 34.8316 154.955 35.0958 155.31 35.2808C155.666 35.4526 156.167 35.5385 156.813 35.5385C158.157 35.5385 159.217 34.8052 159.994 33.3386C160.771 31.8589 161.16 29.7713 161.16 27.076Z" fill="#FEFBF9"/>
<path d="M6.20403 11.0952C5.8591 10.4551 5.05434 10.2319 4.43214 10.6037C2.5779 11.712 2.00068 14.1428 3.15676 15.9747L8.0721 23.7632C8.70301 24.7629 10.0085 25.079 11.0225 24.4774C12.0341 23.8772 12.3922 22.5789 11.8323 21.54L6.20403 11.0952Z" fill="#FF2156"/>
<path d="M1.3189 26.2947C0.596878 26.2733 0 26.8563 0 27.5831C0 29.7829 1.82155 31.5395 4.00601 31.4463L13.1216 31.0575C14.3163 31.0066 15.2506 30.0026 15.2226 28.7997C15.195 27.6261 14.2598 26.6793 13.0934 26.6447L1.3189 26.2947Z" fill="#FF2156"/>
<path d="M11.8858 38.1999C11.5075 38.8191 11.7154 39.6305 12.3441 39.9883C14.22 41.0566 16.6023 40.3554 17.6103 38.4384L21.8756 30.3266C22.4364 29.2603 22.0492 27.9386 21.0034 27.3489C19.9694 26.7656 18.6622 27.1075 18.0415 28.1236L11.8858 38.1999Z" fill="#FF2156"/>
<path d="M27.3746 34.8163C27.7223 35.4522 28.522 35.6755 29.1456 35.3107C31.0461 34.1993 31.6386 31.7159 30.4469 29.8575L25.537 22.2012C24.8896 21.1915 23.564 20.8787 22.5378 21.4933C21.5103 22.1087 21.1523 23.4327 21.7286 24.487L27.3746 34.8163Z" fill="#FF2156"/>
<path d="M32.4105 19.6616C33.1318 19.6781 33.7235 19.0906 33.7168 18.3647C33.6964 16.1858 31.8866 14.4567 29.7226 14.549L20.525 14.9414C19.3406 14.9918 18.4062 15.9726 18.4062 17.1652C18.4062 18.3748 19.3665 19.363 20.5684 19.3906L32.4105 19.6616Z" fill="#FF2156"/>
<path d="M21.7113 7.82002C22.0816 7.2137 21.8836 6.41944 21.2724 6.06095C19.4124 4.96979 17.0233 5.65992 16.0219 7.57771L11.7603 15.7394C11.2197 16.7748 11.5816 18.0549 12.5829 18.6489C13.6066 19.2563 14.9253 18.927 15.5476 17.9082L21.7113 7.82002Z" fill="#FF2156"/>
</svg>
