<svg width="221" height="59" viewBox="0 0 221 59" fill="none" xmlns="http://www.w3.org/2000/svg">
<path d="M65.7156 47.6666C63.3347 47.6666 61.2279 47.3276 59.3952 46.6498C57.5795 45.9549 56.0807 45.0144 54.8989 43.8282C53.717 42.6251 52.8348 41.2016 52.2525 39.5578C51.6702 37.9139 51.379 36.1262 51.379 34.1943C51.379 32.432 51.7301 30.7543 52.4324 29.1613C53.1517 27.5683 54.1196 26.1703 55.3356 24.9671C56.586 23.73 58.1362 22.7471 59.9861 22.0185C61.853 21.2728 63.9085 20.8999 66.1523 20.8999C69.304 20.8999 71.7962 21.493 73.629 22.6793C75.4617 23.8487 76.3781 25.433 76.3781 27.4328C76.3781 28.6529 76.0528 29.6357 75.4019 30.3814C74.751 31.127 73.629 31.4998 72.036 31.4998C70.7514 31.4998 69.6724 31.1949 68.7987 30.5848C67.9423 29.9746 67.5141 29.1783 67.5141 28.1953C67.5141 27.3649 67.6511 26.5431 67.9252 25.7296C68.1992 24.9162 68.362 24.2978 68.4134 23.874C68.225 23.569 67.985 23.3402 67.6939 23.1877C67.4027 23.0182 66.9488 22.9335 66.3323 22.9335C65.5614 22.9335 64.8591 23.1115 64.2254 23.4673C63.5917 23.8232 63.0006 24.4501 62.4525 25.3483C61.9216 26.1957 61.4934 27.3311 61.1679 28.7545C60.8595 30.178 60.7056 31.8897 60.7056 33.8893C60.7056 36.9057 61.4163 39.3374 62.838 41.1846C64.2768 43.0318 65.9896 43.9554 67.9766 43.9554C69.8778 43.9554 71.3851 43.5401 72.4985 42.7098C73.629 41.8624 74.631 40.6677 75.5047 39.1257L77.4316 40.4475C76.9006 41.4812 76.2668 42.4302 75.5303 43.2944C74.7938 44.1417 73.9115 44.8959 72.8839 45.5567C71.8048 46.2515 70.7086 46.777 69.5952 47.1327C68.4818 47.4886 67.1886 47.6666 65.7156 47.6666ZM102.074 24.6367C103.342 25.8059 104.309 27.2041 104.977 28.8309C105.645 30.4577 105.98 32.2201 105.98 34.118C105.98 35.999 105.645 37.7784 104.977 39.4561C104.327 41.1168 103.367 42.5402 102.1 43.7265C100.747 44.9976 99.128 45.972 97.2439 46.6498C95.3768 47.3276 93.2357 47.6666 90.8207 47.6666C88.731 47.6666 86.8039 47.3701 85.0398 46.777C83.2926 46.1838 81.7425 45.2941 80.3893 44.1079C79.0875 42.9725 78.0598 41.5744 77.3062 39.9137C76.5525 38.236 76.1757 36.3635 76.1757 34.296C76.1757 32.2624 76.5011 30.4577 77.152 28.8817C77.8201 27.2887 78.8135 25.8738 80.1323 24.6367C81.3999 23.4504 82.9587 22.5352 84.8084 21.8913C86.6755 21.2305 88.7566 20.8999 91.0518 20.8999C93.4499 20.8999 95.5567 21.2305 97.3723 21.8913C99.2052 22.5352 100.772 23.4504 102.074 24.6367ZM95.4967 42.2522C95.8735 41.3033 96.1476 40.1509 96.3188 38.7951C96.5074 37.4395 96.6016 35.8635 96.6016 34.0671C96.6016 32.8809 96.5158 31.5253 96.3446 30.0001C96.1732 28.475 95.9165 27.2717 95.5737 26.3905C95.1628 25.323 94.5889 24.4842 93.8524 23.874C93.1329 23.2639 92.2166 22.959 91.1032 22.959C89.8872 22.959 88.9108 23.2894 88.1743 23.9504C87.4548 24.6112 86.8981 25.467 86.5041 26.5176C86.1446 27.4836 85.8962 28.619 85.7591 29.9238C85.6221 31.2117 85.5535 32.559 85.5535 33.9655C85.5535 35.8127 85.6135 37.3463 85.7334 38.5664C85.8532 39.7697 86.1446 40.9812 86.6069 42.2013C87.0009 43.2521 87.5662 44.0824 88.3027 44.6925C89.0393 45.3025 89.9728 45.6075 91.1032 45.6075C92.1309 45.6075 93.0131 45.328 93.7496 44.7687C94.4861 44.1926 95.0686 43.3537 95.4967 42.2522Z" fill="#FF2156"/>
<path d="M125.535 47.8189C122.863 47.8189 120.362 47.3953 118.032 46.548C115.703 45.6838 113.673 44.4382 111.943 42.8114C110.248 41.2184 108.911 39.2526 107.935 36.9142C106.959 34.5585 106.471 31.9743 106.471 29.1612C106.471 26.3651 106.959 23.7808 107.935 21.4083C108.929 19.0189 110.316 16.9514 112.097 15.206C113.844 13.4944 115.943 12.1726 118.392 11.2405C120.842 10.2916 123.462 9.81707 126.254 9.81707C128.275 9.81707 130.117 10.0628 131.778 10.5542C133.44 11.0287 134.844 11.571 135.992 12.1811L137.585 10.783H139.82L140.051 23.9503H137.79C136.506 19.934 134.964 16.9853 133.166 15.1043C131.367 13.2233 129.175 12.2827 126.588 12.2827C123.368 12.2827 120.919 13.6893 119.24 16.5024C117.561 19.2985 116.722 23.23 116.722 28.2969C116.722 31.1608 117.005 33.6096 117.57 35.6431C118.152 37.6596 118.906 39.2865 119.831 40.5236C120.824 41.8115 121.998 42.7605 123.351 43.3707C124.704 43.9638 126.203 44.2603 127.847 44.2603C130.245 44.2603 132.378 43.6164 134.245 42.3284C136.129 41.0405 137.842 39.0916 139.383 36.4819L141.593 37.8038C140.856 39.295 140.017 40.6338 139.075 41.82C138.133 42.9893 137.045 43.9976 135.812 44.845C134.459 45.777 132.96 46.5056 131.316 47.0309C129.688 47.5564 127.762 47.8189 125.535 47.8189ZM156.292 46.8531H140.183V44.9975C140.628 44.9635 141.056 44.9212 141.468 44.8703C141.896 44.8195 142.272 44.7348 142.598 44.6161C143.146 44.4129 143.514 44.1247 143.703 43.7519C143.908 43.3622 144.011 42.8537 144.011 42.2268V14.0621C144.011 13.4181 143.874 12.825 143.6 12.2827C143.343 11.7235 142.992 11.2999 142.547 11.0118C142.204 10.7915 141.682 10.5796 140.979 10.3763C140.294 10.1729 139.686 10.0543 139.155 10.0204V8.16481L152.079 7.50391L152.464 7.91061V41.8964C152.464 42.5233 152.575 43.0318 152.798 43.4215C153.021 43.8113 153.38 44.1163 153.877 44.3365C154.22 44.4891 154.579 44.6246 154.956 44.7433C155.333 44.8618 155.778 44.9467 156.292 44.9975V46.8531ZM189.157 46.3193L176.902 47.0564L176.516 46.7005V43.3707H176.362C175.779 43.8959 175.205 44.4129 174.64 44.9212C174.092 45.4126 173.433 45.8617 172.662 46.2684C171.788 46.726 170.957 47.0649 170.169 47.2851C169.399 47.5055 168.268 47.6157 166.778 47.6157C164.192 47.6157 162.205 46.8446 160.817 45.3024C159.447 43.7604 158.762 41.5828 158.762 38.7697V27.331C158.762 26.67 158.633 26.1362 158.376 25.7295C158.12 25.3059 157.777 24.9332 157.349 24.6111C157.006 24.3569 156.561 24.179 156.013 24.0773C155.465 23.9586 154.968 23.8824 154.522 23.8486V21.9929L166.984 21.3321L167.266 21.7133V38.6172C167.266 40.3627 167.6 41.6506 168.268 42.481C168.953 43.3113 169.887 43.7264 171.069 43.7264C172.285 43.7264 173.373 43.413 174.332 42.7859C175.308 42.1589 176.019 41.4896 176.465 40.7778V27.0768C176.465 26.5007 176.353 25.9837 176.13 25.5263C175.907 25.0687 175.583 24.6958 175.154 24.4077C174.846 24.2043 174.4 24.0688 173.818 24.0011C173.253 23.9333 172.67 23.8824 172.071 23.8486V21.9929L184.531 21.3321L184.917 21.7133V41.3371C184.917 41.9302 185.037 42.4386 185.277 42.8622C185.517 43.269 185.868 43.6164 186.331 43.9044C186.656 44.1078 187.075 44.2519 187.589 44.3365C188.12 44.4044 188.643 44.4467 189.157 44.4636V46.3193ZM218.732 34.423C218.732 38.2359 217.455 41.3964 214.903 43.9044C212.369 46.4125 209.148 47.6666 205.244 47.6666C203.736 47.6666 202.434 47.5564 201.338 47.336C200.259 47.1326 199.342 46.8784 198.59 46.5735C197.8 46.2514 197.167 45.938 196.688 45.633C196.225 45.3109 195.857 45.0484 195.583 44.845L191.909 48.1495L190.393 47.5649C190.479 46.3278 190.548 44.989 190.598 43.5485C190.667 42.0912 190.702 40.1338 190.702 37.6766V13.8842C190.702 13.2402 190.563 12.6471 190.29 12.1048C190.034 11.5456 189.683 11.1219 189.237 10.8338C188.911 10.6305 188.432 10.4526 187.797 10.3C187.182 10.1475 186.608 10.0543 186.077 10.0204V8.16481L198.768 7.50391L199.154 7.91061V24.4332H199.309C200.559 23.23 201.843 22.3488 203.162 21.7895C204.481 21.2304 205.8 20.9507 207.119 20.9507C210.716 20.9507 213.551 22.1624 215.624 24.5858C217.696 27.0091 218.732 30.2881 218.732 34.423ZM209.508 34.728C209.508 33.4401 209.406 32.203 209.199 31.0168C209.012 29.8137 208.685 28.7545 208.224 27.8394C207.761 26.9242 207.152 26.1956 206.4 25.6533C205.646 25.094 204.713 24.8145 203.599 24.8145C202.554 24.8145 201.689 24.984 201.005 25.3229C200.319 25.6618 199.702 26.1618 199.154 26.8226V41.6166C199.258 41.9555 199.445 42.4046 199.719 42.9639C200.01 43.5062 200.301 43.9298 200.593 44.2348C201.005 44.6754 201.441 45.0143 201.903 45.2516C202.366 45.4719 203.017 45.5821 203.857 45.5821C205.604 45.5821 206.982 44.6416 207.993 42.7605C209.003 40.8626 209.508 38.1851 209.508 34.728Z" fill="#3C3F44"/>
<path d="M8.06664 14.2286C7.61824 13.4075 6.57205 13.1213 5.76319 13.5983C3.35268 15.0198 2.60229 18.1375 4.10522 20.4871L10.4951 30.4766C11.3153 31.759 13.0125 32.1644 14.3306 31.3927C15.6458 30.6229 16.1112 28.9577 15.3834 27.6254L8.06664 14.2286Z" fill="#F7932E"/>
<path d="M1.71458 33.7307C0.775942 33.7033 0 34.451 0 35.3832C0 38.2046 2.36802 40.4578 5.20781 40.3382L17.0581 39.8395C18.6112 39.7742 19.8258 38.4865 19.7893 36.9436C19.7535 35.4384 18.5377 34.2241 17.0214 34.1796L1.71458 33.7307Z" fill="#F9562B"/>
<path d="M15.4491 49.0014C14.9574 49.7955 15.2276 50.8363 16.0449 51.2953C18.4837 52.6653 21.5805 51.7661 22.8909 49.3073L28.436 38.903C29.165 37.5354 28.6616 35.8402 27.3021 35.0836C25.9579 34.3357 24.2584 34.7742 23.4516 36.0774L15.4491 49.0014Z" fill="#FF2156"/>
<path d="M35.5894 44.6595C36.0414 45.4751 37.081 45.7614 37.8917 45.2937C40.3623 43.8682 41.1327 40.6829 39.5834 38.2993L33.2005 28.4792C32.359 27.1842 30.6357 26.783 29.3016 27.5712C27.9658 28.3606 27.5005 30.0589 28.2496 31.411L35.5894 44.6595Z" fill="#62318D"/>
<path d="M42.1307 25.2162C43.0683 25.2375 43.8376 24.4839 43.8289 23.5529C43.8022 20.758 41.4494 18.5405 38.6364 18.6588L26.6796 19.1619C25.1398 19.2268 23.9252 20.4847 23.9252 22.0144C23.9252 23.5657 25.1735 24.8333 26.7359 24.8686L42.1307 25.2162Z" fill="#0273C1"/>
<path d="M28.2254 10.0252C28.7069 9.24753 28.4494 8.2288 27.655 7.769C25.2368 6.36947 22.131 7.25463 20.8293 9.71441L15.2891 20.1827C14.5863 21.5108 15.0568 23.1526 16.3585 23.9144C17.6895 24.6936 19.4036 24.271 20.2127 22.9645L28.2254 10.0252Z" fill="#00A9A0"/>
</svg>
