<svg width="821" height="605" viewBox="0 0 821 605" fill="none" xmlns="http://www.w3.org/2000/svg">
<g clip-path="url(#clip0_1601_2093)">
<path opacity="0.1" d="M8.83678 290.06C21.8009 340.113 49.2218 383.381 92.5549 404.355C182.639 447.944 385.803 425.463 537.432 399.658C615.866 386.311 684.806 349.478 734.886 297.642L8.83678 290.06Z" fill="#884DFF"/>
<path opacity="0.1" d="M803.968 54.4525H720.773C716.824 54.4525 713.585 51.5297 713.585 47.9582C713.585 44.3867 716.824 41.4564 720.773 41.4564H735.162C731.207 41.4564 727.975 38.5336 727.975 34.9547C727.975 31.3757 731.207 28.4604 735.162 28.4604H724.892C720.937 28.4604 717.698 25.5375 717.698 21.9586C717.698 18.3796 720.937 15.4643 724.892 15.4643H768.315C758.68 11.4156 747.417 8.53752 734.438 7.02392C616.03 -6.71778 573.757 2.37128 558.845 11.7138C540.257 23.5039 519.61 31.6847 497.987 35.827C424.934 49.4494 288.315 65.8381 164.488 30.6077C102.944 13.0634 57.2003 42.6718 29.7868 92.1658H818.418C817.388 77.7828 814.305 64.496 808.648 52.8718C807.308 53.9053 805.661 54.4616 803.968 54.4525Z" fill="#884DFF"/>
<path opacity="0.1" d="M1.78378 185.584C-1.41175 214.694 -0.325497 244.115 5.00801 272.91L735.446 297.061C755.553 276.228 772.636 252.68 786.198 227.107L1.78378 185.584ZM290.681 247.88H276.299C280.254 247.88 283.494 250.81 283.494 254.382C283.494 257.953 280.254 260.876 276.299 260.876H193.103C189.155 260.876 185.916 257.953 185.916 254.382C185.916 250.81 189.155 247.88 193.103 247.88H207.493C203.537 247.88 200.305 244.957 200.305 241.386C200.305 237.814 203.537 234.884 207.493 234.884H197.216C193.26 234.884 190.021 231.961 190.021 228.39C190.021 224.818 193.26 221.888 197.216 221.888H280.411C284.367 221.888 287.599 224.811 287.599 228.39C287.599 231.969 284.367 234.884 280.411 234.884H290.681C294.637 234.884 297.868 237.807 297.868 241.386C297.868 244.965 294.637 247.88 290.681 247.88Z" fill="#884DFF"/>
<path opacity="0.1" d="M818.447 92.6128L20.9874 110.135C11.2848 132.675 4.85128 158.16 1.88827 184.57H804.476C809.699 169.118 813.574 153.245 816.059 137.126C818.455 121.61 819.41 106.601 818.447 92.6128ZM163.801 150.062H149.419C153.375 150.062 156.614 152.993 156.614 156.564C156.614 160.136 153.375 163.066 149.419 163.066H66.2236C62.2754 163.066 59.0363 160.136 59.0363 156.564C59.0363 152.993 62.2754 150.062 66.2236 150.062H80.6133C76.6576 150.062 73.4259 147.14 73.4259 143.568C73.4259 139.997 76.6576 137.066 80.6133 137.066H70.336C66.3804 137.066 63.1412 134.144 63.1412 130.572C63.1412 127.001 66.3804 124.07 70.336 124.07H153.532C157.487 124.07 160.719 126.993 160.719 130.572C160.719 134.151 157.487 137.066 153.532 137.066H163.801C167.757 137.066 170.989 139.997 170.989 143.568C170.989 147.14 167.757 150.062 163.801 150.062Z" fill="#884DFF"/>
<path opacity="0.1" d="M406.821 582.385C591.065 582.385 740.424 568.659 740.424 551.726C740.424 534.793 591.065 521.066 406.821 521.066C222.576 521.066 73.2169 534.793 73.2169 551.726C73.2169 568.659 222.576 582.385 406.821 582.385Z" fill="#884DFF"/>
<path d="M746.828 298.485C746.824 298.433 746.824 298.381 746.828 298.328C746.828 298.246 746.828 298.172 746.828 298.097C746.678 297.243 746.356 296.429 745.88 295.704C744.172 292.973 741.793 290.724 738.969 289.172C734.043 286.473 727.273 285.317 725.303 280.165C724.698 278.57 724.683 276.832 724.385 275.162C723.863 272.56 722.664 270.141 720.91 268.147C719.156 266.154 716.908 264.657 714.391 263.806C712.048 263.023 709.518 262.807 707.241 261.838C702.151 259.676 699.464 254.345 697.188 249.416C694.242 243.053 691.297 236.688 688.351 230.321C686.112 231.447 683.216 230.917 681.119 229.508C679.098 228.005 677.489 226.018 676.439 223.73C673.402 217.839 672.096 211.166 668.528 205.559C664.961 199.952 657.833 195.523 651.534 197.961C650.304 198.575 649.032 199.101 647.727 199.534C642.331 200.794 636.36 194.636 631.741 197.626C630.973 198.117 630.348 198.801 629.927 199.609C629.923 199.559 629.923 199.509 629.927 199.46C629.326 200.673 628.99 201.999 628.942 203.352C628.942 203.628 628.942 203.896 628.942 204.157C628.942 204.202 628.942 204.247 628.942 204.291C628.942 205.365 629.009 206.454 629.024 207.542C629.04 208.456 628.971 209.37 628.815 210.271V210.197C628.727 210.704 628.598 211.203 628.427 211.688C627.225 214.909 623.896 217.019 622.337 220.046V219.897C622.161 220.226 622.009 220.568 621.881 220.919C621.604 221.712 621.46 222.546 621.456 223.387C621.321 229.076 627.359 234.429 628.061 240.536C628.561 244.86 629.554 246.247 633.233 248.693L634.039 249.23C633.718 249.23 633.39 249.274 633.024 249.282C632.881 249.284 632.739 249.299 632.599 249.327C631.95 249.148 631.269 249.116 630.605 249.232C629.942 249.348 629.313 249.609 628.763 249.998C625.941 252.234 619.269 250.512 616.306 249.998C613.343 249.483 603.193 250.87 601.775 256.492C600.357 262.114 597.923 273.716 597.923 273.716C597.923 273.716 597.923 281.075 597.02 282.447C596.986 282.543 596.986 282.649 597.02 282.745C597.02 284.81 597.095 297.225 595.095 300.424C594.602 301.169 594.639 302.817 595.005 304.845C592.9 307.552 590.923 310.713 591.273 312.786C591.915 317.028 600.528 330.368 612.873 323.225C612.873 323.225 619.896 310.392 611.059 303.57L611.44 302.079C614.112 305.36 616.09 307.716 616.09 307.716C616.09 307.716 616.194 307.992 616.358 308.461H616.09C617.243 311.597 617.942 314.881 618.164 318.214C618.131 319.436 617.909 320.646 617.508 321.8H617.739C617.672 322.054 617.597 322.307 617.508 322.546C617.074 323.805 616.264 324.901 615.186 325.685C609.014 330.054 601.946 361.258 601.946 361.258C601.946 361.258 587.945 411.699 585.146 414.57C582.832 416.926 597.371 423.562 608.283 422.772C609.806 422.681 611.311 422.395 612.761 421.922C612.828 422.667 612.903 423.413 612.977 424.091C613.209 426.328 613.447 428.401 613.597 429.05C613.985 430.675 614.754 447.273 614.754 447.273C614.754 447.273 613.179 458.054 613.559 465.555C613.559 466.07 613.627 466.562 613.671 467.046L612.313 467.255C610.253 471.878 618.739 510.449 619.896 513.692C620.662 516.248 621.094 518.892 621.18 521.558C621.18 521.558 620.433 524.302 621.053 525.801C621.439 526.717 621.69 527.684 621.799 528.671C621.799 528.671 621.292 531.162 622.06 532.787C622.829 534.413 621.933 537.261 621.933 537.261C621.933 537.261 621.68 548.497 619.366 554.611C618.736 556.257 618.553 558.039 618.834 559.778C619.116 561.517 619.853 563.151 620.971 564.513C621.132 564.726 621.306 564.927 621.493 565.117C621.493 565.117 634.256 565.222 636.502 565.117H636.793C637.696 564.99 640.01 554.88 637.95 550.011C635.89 545.142 637.696 539.147 637.696 539.147V530.289C637.696 530.289 640.01 528.157 637.696 523.579C635.383 519.001 635.763 517.614 635.763 517.614C635.763 517.614 638.338 510.247 635.636 507.876C632.935 505.505 636.151 496.513 636.151 496.513L637.062 466.539C636.585 466.384 636.099 466.26 635.607 466.166C635.554 465.674 635.502 465.167 635.45 464.631C634.92 459.202 634.465 451.821 635.644 449.718C636.823 447.616 637.39 429.259 637.577 416.501L649.339 416.948C649.586 422.913 649.847 428.356 650.011 429.05C650.399 430.675 651.175 447.273 651.175 447.273C651.175 447.273 649.593 458.054 649.974 465.555C649.974 466.07 650.041 466.562 650.086 467.046L648.727 467.255C646.668 471.878 655.154 510.449 656.31 513.692C657.077 516.248 657.511 518.892 657.602 521.558C657.602 521.558 656.855 524.302 657.467 525.801C657.853 526.717 658.104 527.684 658.214 528.671C658.214 528.671 657.706 531.162 658.475 532.787C659.244 534.413 658.348 537.261 658.348 537.261C658.348 537.261 658.094 548.497 655.78 554.611C655.16 556.259 654.987 558.041 655.278 559.777C655.569 561.514 656.314 563.142 657.437 564.498C657.598 564.711 657.773 564.912 657.96 565.102C657.96 565.102 670.722 565.207 672.969 565.102H673.26C674.163 564.975 676.477 554.865 674.417 549.996C672.357 545.127 674.163 539.132 674.163 539.132V530.289C674.163 530.289 676.477 528.157 674.163 523.579C671.849 519.001 672.23 517.614 672.23 517.614C672.23 517.614 674.805 510.247 672.103 507.876C669.401 505.505 672.618 496.513 672.618 496.513L673.544 466.539C673.055 466.382 672.556 466.257 672.051 466.166C671.999 465.674 671.946 465.167 671.894 464.631C671.364 459.202 670.909 451.821 672.088 449.718C673.036 447.996 673.581 436.901 673.827 426.067C673.827 425.322 673.827 424.576 673.887 423.83C679.291 423.606 684.673 423.003 689.993 422.026C689.993 422.026 683.701 399.799 685.627 396.183C686.455 394.625 685.261 386.326 683.627 377.386C685.906 379.229 688.74 380.253 691.672 380.294C694.486 385.7 703.047 398.137 707.868 400.053C713.526 402.29 709.279 382.456 706.585 379.586C705.31 378.018 704.236 376.297 703.39 374.463C703.465 374.374 703.547 374.299 703.621 374.217C703.696 374.135 703.756 353.116 702.465 353.497C701.173 353.877 699.636 350.372 699.636 350.372L695.65 315.425L693.979 300.796C695.374 301.825 697.031 302.481 698.457 303.503C702.338 306.344 703.607 311.332 705.308 315.746C706.711 319.377 708.682 322.978 711.913 325.26C715.145 327.542 719.884 328.146 723.109 325.834C726.094 323.664 726.975 319.75 727.632 316.178C733.05 318.08 739.625 312.995 738.924 307.44C738.752 306.068 738.245 304.569 738.961 303.369C740.394 300.998 744.932 302.377 746.425 300.036C746.676 299.631 746.805 299.163 746.798 298.686C746.82 298.582 746.828 298.537 746.828 298.485ZM674.35 317.707C674.268 319.042 676.104 329.764 677.596 338.249C676.372 332.962 673.917 327.318 669.08 323.448C669.08 323.448 669.08 323.18 669.021 322.703H669.08C669.08 322.703 668.879 320.57 668.849 317.535C668.858 314.845 669.057 312.16 669.446 309.498V309.431H669.349C669.349 309.207 669.409 308.976 669.446 308.752C669.743 306.506 670.353 304.312 671.26 302.235C671.661 301.422 672.122 300.639 672.64 299.894C673.439 307.104 674.424 316.357 674.35 317.707ZM678.365 342.551C679.022 346.212 679.492 348.784 679.492 348.784L683.455 375.969V376.096C681.321 364.621 678.596 352.527 678.596 352.527C678.874 349.203 678.797 345.859 678.365 342.551Z" fill="url(#paint0_linear_1601_2093)"/>
<path d="M629.793 242.027C629.046 235.138 621.583 229.195 623.822 222.641C625.038 219.07 628.845 216.885 630.128 213.336C630.979 210.995 630.599 208.422 630.606 205.932C630.614 203.441 631.196 200.66 633.271 199.281C637.749 196.298 643.511 202.435 648.735 201.182C649.998 200.751 651.228 200.227 652.414 199.616C658.512 197.193 665.408 201.607 668.834 207.184C672.26 212.762 673.544 219.413 676.484 225.273C677.488 227.536 679.043 229.512 681.007 231.022C683.037 232.424 685.814 232.953 688.008 231.834L696.554 250.848C698.793 255.746 701.36 261.055 706.256 263.21C708.45 264.172 710.898 264.388 713.167 265.171C715.633 266.04 717.827 267.541 719.53 269.523C721.233 271.506 722.385 273.9 722.87 276.467C723.161 278.137 723.168 279.867 723.758 281.455C725.661 286.585 732.207 287.733 736.976 290.403C739.735 291.957 742.048 294.193 743.693 296.897C744.439 298.187 745.081 299.879 744.283 301.147C742.842 303.473 738.461 302.101 737.073 304.465C736.371 305.658 736.864 307.149 737.073 308.521C737.752 314.046 731.386 319.109 726.146 317.215C725.512 320.772 724.654 324.671 721.773 326.826C718.675 329.137 714.085 328.526 710.958 326.259C707.831 323.993 705.935 320.406 704.577 316.79C702.927 312.391 701.696 307.425 697.942 304.599C696.583 303.585 694.956 302.929 693.628 301.907C690.643 299.626 689.15 295.861 688.083 292.214C686.702 287.666 685.605 282.991 683.604 278.696C681.604 274.402 678.44 270.405 674.103 268.444C670.036 266.617 665.349 266.737 661.147 265.253C653.915 262.703 648.563 256.626 641.369 253.763C639.068 252.797 636.889 251.566 634.875 250.095C631.255 247.716 630.27 246.337 629.793 242.027Z" fill="#3F3D56"/>
<g opacity="0.1">
<path d="M630.464 211.874C630.618 211.583 630.753 211.281 630.867 210.972C631.711 208.631 631.338 206.059 631.345 203.568C631.345 202.738 631.422 201.909 631.576 201.093C630.888 202.566 630.553 204.18 630.599 205.805C630.591 207.811 630.83 209.913 630.464 211.874Z" fill="black"/>
<path d="M722.474 324.485C719.377 326.789 714.787 326.185 711.66 323.911C708.532 321.636 706.629 318.065 705.308 314.434C703.659 310.035 702.435 305.069 698.673 302.243C697.322 301.229 695.688 300.565 694.367 299.551C691.381 297.27 689.889 293.504 688.814 289.896C687.433 285.347 686.344 280.672 684.336 276.378C682.328 272.083 679.179 268.086 674.835 266.125C670.775 264.299 666.088 264.418 661.886 262.934C654.646 260.384 649.295 254.307 642.107 251.444C639.806 250.475 637.625 249.245 635.607 247.776C632.069 245.338 631.128 243.958 630.606 239.656C629.86 233.199 623.292 227.57 624.314 221.485C624.148 221.814 624.001 222.153 623.874 222.499C621.635 229.061 629.098 235.003 629.845 241.885C630.33 246.188 631.338 247.567 634.845 250.005C636.864 251.474 639.045 252.705 641.346 253.674C648.533 256.537 653.885 262.621 661.124 265.164C665.326 266.655 670.013 266.528 674.074 268.355C678.417 270.316 681.537 274.32 683.575 278.607C685.612 282.894 686.702 287.554 688.053 292.125C689.15 295.734 690.59 299.499 693.605 301.781C694.956 302.795 696.591 303.458 697.912 304.472C701.644 307.298 702.898 312.264 704.547 316.663C705.905 320.279 707.808 323.858 710.936 326.125C714.063 328.392 718.653 329.003 721.75 326.699C723.728 325.208 724.736 322.934 725.4 320.496C724.809 322.068 723.797 323.448 722.474 324.485Z" fill="black"/>
<path d="M737.812 302.124C737.526 302.659 737.402 303.265 737.454 303.869C739.14 302.206 742.947 303.183 744.275 301.043C744.584 300.514 744.705 299.897 744.619 299.291C742.887 300.931 739.081 299.954 737.812 302.124Z" fill="black"/>
<path d="M726.848 314.874C726.706 315.619 726.564 316.417 726.385 317.193C730.953 318.617 736.23 314.956 736.976 310.333C735.162 313.89 730.684 316.268 726.848 314.874Z" fill="black"/>
</g>
<path d="M639.435 245.613C639.435 245.613 641.921 250.624 634.584 250.728C627.248 250.832 639.309 283.267 639.309 283.267L651.504 298.775L666.677 290.574L667.55 267.952L668.67 254.285C668.67 254.285 654.489 249.684 657.102 243.6C659.714 237.516 639.435 245.613 639.435 245.613Z" fill="#FBBEBE"/>
<path d="M683.478 377.856C683.478 377.856 692.434 386.662 702.883 374.978L694.859 366.47H684.709L683.478 377.856Z" fill="#575A89"/>
<path opacity="0.1" d="M684.448 366.47L683.216 377.856C683.216 377.856 692.173 386.662 702.621 374.978" fill="black"/>
<path d="M699.517 368.021C699.517 368.021 703.121 377.468 705.734 380.324C708.346 383.179 712.451 402.938 706.98 400.701C701.509 398.464 691.06 381.815 690.433 378.959C689.807 376.103 689.568 368.021 689.568 368.021H699.517Z" fill="#FBBEBE"/>
<path d="M621.277 416.486L669.536 418.35L663.938 397.965L639.629 397.473L621.277 416.486Z" fill="#575A89"/>
<path opacity="0.1" d="M627.986 416.486L676.253 418.35L670.655 397.965L646.339 397.473L627.986 416.486Z" fill="black"/>
<path d="M637.069 450.136C635.928 452.261 636.368 459.613 636.883 465.048C637.211 468.508 637.57 471.17 637.57 471.17C637.57 471.17 619.53 476.762 616.799 471.915C616.104 470.685 615.761 468.53 615.642 466.003C615.269 458.546 616.799 447.802 616.799 447.802C616.799 447.802 616.052 431.279 615.679 429.661C615.53 429.013 615.298 426.955 615.075 424.725C614.746 421.415 614.433 417.731 614.433 417.731L639.062 404.683C639.062 404.683 639.062 407.129 639.017 410.894C638.883 422.72 638.488 447.526 637.069 450.136Z" fill="#FBBEBE"/>
<path opacity="0.1" d="M637.57 471.169C637.57 471.169 619.53 476.761 616.799 471.915C616.105 470.685 615.761 468.53 615.642 466.002C619.374 465.436 630.733 463.87 636.883 465.048C637.211 468.508 637.57 471.169 637.57 471.169Z" fill="black"/>
<path d="M638.189 565.117H637.905C635.733 565.199 623.389 565.117 623.389 565.117C623.208 564.928 623.039 564.729 622.881 564.52C621.79 563.156 621.07 561.533 620.789 559.809C620.508 558.086 620.676 556.318 621.277 554.678C623.516 548.587 623.762 537.402 623.762 537.402C623.762 537.402 624.635 534.547 623.889 532.929C623.143 531.311 623.635 528.828 623.635 528.828C623.521 527.846 623.269 526.885 622.889 525.972C622.269 524.481 623.016 521.744 623.016 521.744C622.93 519.093 622.512 516.463 621.769 513.916C620.65 510.687 612.44 472.288 614.433 467.687C614.433 467.687 631.845 464.705 638.443 466.942L637.569 496.766C637.569 496.766 634.457 505.714 637.069 508.077C639.682 510.441 637.196 517.77 637.196 517.77C637.196 517.77 636.823 519.135 639.062 523.735C641.301 528.336 639.062 530.446 639.062 530.446V539.266C639.062 539.266 637.323 545.231 639.308 550.078C641.294 554.924 639.062 564.96 638.189 565.117Z" fill="#3F3D56"/>
<path d="M672.364 450.136C671.222 452.261 671.663 459.613 672.178 465.048C672.506 468.508 672.864 471.17 672.864 471.17C672.864 471.17 654.825 476.762 652.094 471.915C651.399 470.685 651.056 468.53 650.937 466.002C650.564 458.546 652.094 447.802 652.094 447.802C652.094 447.802 651.347 431.279 650.974 429.661C650.772 428.789 650.422 420.468 650.146 413.004C649.914 406.637 649.728 400.88 649.728 400.88L674.357 404.683C674.357 404.683 674.357 415.502 674.051 426.619C673.782 437.401 673.282 448.451 672.364 450.136Z" fill="#FBBEBE"/>
<path opacity="0.1" d="M672.864 471.169C672.864 471.169 654.825 476.761 652.093 471.915C651.399 470.685 651.056 468.53 650.937 466.002C654.668 465.436 666.028 463.87 672.178 465.048C672.506 468.508 672.864 471.169 672.864 471.169Z" fill="black"/>
<path d="M673.484 565.117H673.2C671.028 565.199 658.684 565.117 658.684 565.117C658.503 564.928 658.334 564.729 658.176 564.521C657.085 563.156 656.365 561.533 656.084 559.809C655.803 558.086 655.971 556.319 656.572 554.678C658.811 548.557 659.035 537.373 659.035 537.373C659.035 537.373 659.908 534.517 659.161 532.899C658.415 531.281 658.908 528.798 658.908 528.798C658.793 527.816 658.542 526.855 658.161 525.942C657.542 524.451 658.288 521.715 658.288 521.715C658.203 519.063 657.784 516.433 657.042 513.886C655.922 510.657 647.712 472.258 649.705 467.658C649.705 467.658 667.118 464.675 673.715 466.912L672.842 496.737C672.842 496.737 669.73 505.684 672.342 508.048C674.954 510.411 672.469 517.741 672.469 517.741C672.469 517.741 672.096 519.105 674.335 523.705C676.574 528.306 674.335 530.416 674.335 530.416V539.237C674.335 539.237 672.596 545.202 674.581 550.048C676.566 554.895 674.357 564.96 673.484 565.117Z" fill="#3F3D56"/>
<path opacity="0.1" d="M649.138 251.474C658.825 251.474 666.677 243.629 666.677 233.952C666.677 224.275 658.825 216.43 649.138 216.43C639.451 216.43 631.599 224.275 631.599 233.952C631.599 243.629 639.451 251.474 649.138 251.474Z" fill="black"/>
<path d="M649.138 250.728C658.825 250.728 666.677 242.883 666.677 233.206C666.677 223.529 658.825 215.684 649.138 215.684C639.451 215.684 631.599 223.529 631.599 233.206C631.599 242.883 639.451 250.728 649.138 250.728Z" fill="#FBBEBE"/>
<path opacity="0.1" d="M614.433 417.731L639.062 404.683C639.062 404.683 639.062 407.129 639.017 410.894C635.42 413.041 629.994 416.27 624.777 419.32C621.941 420.982 619.172 422.593 616.799 423.942C616.247 424.241 615.67 424.491 615.075 424.688C614.746 421.415 614.433 417.731 614.433 417.731Z" fill="black"/>
<path opacity="0.1" d="M674.357 404.653C674.357 404.653 674.357 415.472 674.051 426.589H673.962C672.121 426.655 670.279 426.597 668.446 426.418C665.229 426.075 662.654 425.225 661.729 423.54C659.856 420.259 654.609 416.083 650.175 412.974C649.944 406.607 649.758 400.851 649.758 400.851L674.357 404.653Z" fill="black"/>
<path d="M669.775 309.893C669.15 314.746 669.03 319.651 669.416 324.529C680.731 333.849 678.619 353.481 678.619 353.481C678.619 353.481 687.329 393.252 685.463 396.854C683.597 400.455 689.687 422.578 689.687 422.578C684.496 423.56 679.24 424.163 673.962 424.382C672.121 424.447 670.279 424.39 668.446 424.21C665.229 423.867 662.654 423.017 661.729 421.332C658.251 415.248 643.197 406.174 643.197 406.174C643.197 406.174 633.659 411.885 624.777 417.082C621.941 418.745 619.172 420.356 616.799 421.705C614.872 422.726 612.744 423.309 610.567 423.413C600.006 424.196 585.937 417.589 588.176 415.248C590.915 412.385 604.476 362.183 604.476 362.183C604.476 362.183 611.313 331.113 617.284 326.766C618.331 325.976 619.112 324.886 619.523 323.642C621.568 317.968 618.15 308.871 618.15 308.871C618.15 308.871 598.871 285.138 599.737 283.766C600.603 282.394 600.61 275.072 600.61 275.072C600.61 275.072 602.976 263.515 604.342 257.923C605.708 252.331 615.537 250.959 618.396 251.459C621.254 251.958 627.718 253.696 630.449 251.459C633.181 249.222 637.793 252.331 637.793 252.331L649.123 255.448L659.311 249.483C659.311 249.483 669.521 250.005 670.394 251.369C671.267 252.734 684.702 255.351 684.702 255.351C691.538 259.944 691.292 281.82 691.292 281.82C691.292 281.82 674.872 296.106 671.514 303.443C670.644 305.504 670.059 307.674 669.775 309.893Z" fill="#575A89"/>
<path d="M687.575 278.793L691.307 281.775L695.165 316.447L699.017 351.244C699.017 351.244 700.509 354.726 701.756 354.354C703.002 353.981 702.875 374.977 702.875 374.977C702.875 374.977 688.59 366.201 683.47 377.855L679.485 349.753C679.485 349.753 674.38 321.047 674.506 318.81C674.633 316.573 671.894 292.341 671.894 292.341L687.575 278.793Z" fill="#575A89"/>
<path d="M602.491 280.411L599.752 283.766C599.752 283.766 600.006 298.179 597.886 301.661C595.767 305.143 603.738 325.521 606.723 324.276C609.708 323.031 616.425 291.223 616.425 290.85C616.425 290.477 602.491 280.411 602.491 280.411Z" fill="#575A89"/>
<path d="M602.245 300.916C602.245 300.916 593.535 309.736 594.154 313.964C594.774 318.191 603.111 331.471 615.052 324.335C615.052 324.335 626.128 303.525 602.245 300.916Z" fill="#575A89"/>
<path opacity="0.1" d="M637.905 565.139C635.734 565.221 623.389 565.139 623.389 565.139C623.208 564.951 623.039 564.751 622.881 564.543C626.038 563.469 632.86 561.859 637.905 565.139Z" fill="black"/>
<path opacity="0.1" d="M673.215 565.139C671.043 565.221 658.699 565.139 658.699 565.139C658.518 564.951 658.349 564.751 658.191 564.543C661.333 563.469 668.155 561.859 673.215 565.139Z" fill="black"/>
<path opacity="0.1" d="M625.658 346.577C623.755 364.815 624.382 401.007 624.777 417.083C621.941 418.745 619.172 420.356 616.799 421.705C614.872 422.726 612.744 423.309 610.567 423.413C609.775 418.551 620.732 368.618 625.658 346.577Z" fill="black"/>
<path opacity="0.1" d="M627.986 336.228C627.934 336.489 627.031 340.456 625.658 346.577C626.195 341.35 626.941 337.6 627.986 336.228Z" fill="black"/>
<path opacity="0.1" d="M658.288 334.259C658.288 334.259 668.864 400.619 637.547 408.821C637.54 408.791 659.214 405.503 658.288 334.259Z" fill="black"/>
<path opacity="0.1" d="M673.962 424.382C672.121 424.447 670.279 424.39 668.446 424.211L659.997 333.477C665.386 336.996 671.834 401.387 673.962 424.382Z" fill="black"/>
<path opacity="0.1" d="M636.077 222.902C636.637 222.857 637.201 222.915 637.741 223.073C638.533 223.468 639.247 224.003 639.846 224.654C640.819 225.467 641.983 226.019 643.228 226.261C644.473 226.502 645.759 226.424 646.966 226.033C647.817 225.653 648.72 225.402 649.645 225.288C651.071 225.288 652.302 226.332 653.041 227.525C653.78 228.718 654.161 230.134 654.795 231.409C655.43 232.684 656.445 233.892 657.84 234.205C658.51 234.231 659.168 234.383 659.781 234.653C660.157 234.958 660.445 235.356 660.617 235.808C661.781 238.321 662.707 241.289 665.192 242.519C666.106 242.942 667.103 243.159 668.11 243.153C669.135 243.228 670.162 243.043 671.096 242.616C672.014 242.103 672.774 241.347 673.29 240.431C674.842 237.866 675.021 234.69 674.656 231.715C674.2 227.962 672.862 224.37 670.752 221.232C668.529 218.058 665.503 215.53 661.982 213.907C658.461 212.284 654.573 211.624 650.713 211.994C649.365 212.145 648.031 212.394 646.72 212.739C641.973 214.007 637.316 216.378 634.435 220.352C633.738 221.344 632.973 222.286 632.144 223.17C633.45 223.044 634.763 222.932 636.077 222.902Z" fill="black"/>
<path d="M636.077 222.156C636.637 222.112 637.201 222.17 637.741 222.328C638.533 222.722 639.247 223.258 639.846 223.908C640.819 224.721 641.983 225.274 643.228 225.515C644.473 225.756 645.759 225.678 646.966 225.288C647.817 224.908 648.72 224.657 649.645 224.542C651.071 224.542 652.302 225.586 653.041 226.779C653.78 227.972 654.161 229.389 654.795 230.664C655.43 231.939 656.445 233.147 657.84 233.46C658.51 233.486 659.168 233.638 659.781 233.907C660.157 234.212 660.445 234.611 660.617 235.063C661.781 237.576 662.707 240.543 665.192 241.773C666.106 242.197 667.103 242.413 668.11 242.407C669.135 242.482 670.162 242.298 671.096 241.87C672.014 241.358 672.774 240.602 673.29 239.686C674.842 237.121 675.021 233.944 674.656 230.969C674.2 227.216 672.862 223.624 670.752 220.486C668.529 217.312 665.503 214.785 661.982 213.162C658.461 211.538 654.573 210.878 650.713 211.248C649.365 211.399 648.031 211.648 646.72 211.994C641.973 213.261 637.316 215.632 634.435 219.606C633.738 220.598 632.973 221.54 632.144 222.425C633.45 222.298 634.763 222.186 636.077 222.156Z" fill="#3F3D56"/>
<path opacity="0.1" d="M617.045 263.881C617.045 263.881 617.918 270.845 614.933 272.582C611.947 274.319 617.045 263.881 617.045 263.881Z" fill="black"/>
<path opacity="0.1" d="M680.358 317.819C680.358 317.819 687.448 307.38 688.448 310.363C689.448 313.345 680.358 317.819 680.358 317.819Z" fill="black"/>
<path opacity="0.1" d="M680.858 321.293C680.858 321.293 687.851 312.719 688.523 316.074C689.195 319.429 680.858 321.293 680.858 321.293Z" fill="black"/>
<path opacity="0.1" d="M660.318 311.086C657.782 311.122 655.307 310.308 653.288 308.774H652.676C650.581 310.686 647.832 311.719 644.996 311.66C643.521 311.694 642.055 311.429 640.686 310.88C639.317 310.332 638.074 309.511 637.032 308.469H636.219C634.07 310.217 631.371 311.149 628.6 311.098C625.829 311.048 623.166 310.018 621.083 308.193L618.164 308.141C618.164 308.141 621.583 317.237 619.538 322.911L669.416 323.799C669.03 318.92 669.15 314.016 669.775 309.162V309.095L667.035 309.043C665.065 310.408 662.716 311.122 660.318 311.086Z" fill="black"/>
<path opacity="0.1" d="M660.318 312.577C657.782 312.613 655.307 311.799 653.288 310.266H652.676C650.581 312.177 647.832 313.21 644.996 313.151C643.521 313.185 642.055 312.92 640.686 312.372C639.317 311.823 638.074 311.003 637.032 309.96H636.219C634.07 311.708 631.371 312.64 628.6 312.589C625.829 312.539 623.166 311.51 621.083 309.684L618.164 309.632C618.164 309.632 621.583 318.728 619.538 324.402L669.416 325.29C669.03 320.412 669.15 315.507 669.775 310.653V310.586L667.035 310.534C665.065 311.899 662.716 312.614 660.318 312.577Z" fill="black"/>
<path d="M660.318 311.831C657.782 311.867 655.307 311.054 653.288 309.52H652.676C650.581 311.431 647.832 312.464 644.996 312.406C643.521 312.44 642.055 312.174 640.686 311.626C639.317 311.077 638.074 310.257 637.032 309.214H636.219C634.07 310.963 631.371 311.894 628.6 311.844C625.829 311.793 623.166 310.764 621.083 308.938L618.164 308.886C618.164 308.886 621.583 317.983 619.538 323.657L669.416 324.544C669.03 319.666 669.15 314.761 669.775 309.908V309.841L667.035 309.788C665.065 311.154 662.716 311.868 660.318 311.831Z" fill="#3F3D56"/>
<path opacity="0.1" d="M658.102 262.114C658.102 262.114 668.603 262.785 668.67 264.276C668.737 265.767 658.102 262.114 658.102 262.114Z" fill="black"/>
<path opacity="0.1" d="M632.591 255.753C632.591 255.753 622.09 256.424 622.023 257.916C621.956 259.407 632.591 255.753 632.591 255.753Z" fill="black"/>
<path opacity="0.1" d="M672.723 286.242C672.618 286.167 672.514 286.108 672.409 286.041C675.096 288.456 674.648 293.735 671.349 298.09C668.05 302.444 663.042 304.256 659.997 302.302C660.094 302.384 660.176 302.474 660.281 302.556C663.266 304.837 668.491 303.048 671.939 298.544C675.387 294.041 675.723 288.531 672.723 286.242Z" fill="black"/>
<path opacity="0.1" d="M615.037 297.531C612.38 292.744 612.724 287.457 615.731 285.452C615.619 285.504 615.5 285.549 615.388 285.608C612.089 287.442 611.656 292.938 614.388 297.889C617.12 302.839 622.045 305.345 625.344 303.54C625.453 303.478 625.558 303.408 625.658 303.332C622.366 304.823 617.694 302.317 615.037 297.531Z" fill="black"/>
<path opacity="0.1" d="M618.59 257.163L617.627 258.654L615.172 257.349L616.463 255.366C617.317 255.769 618.05 256.388 618.59 257.163Z" fill="black"/>
<path d="M602.991 312.346C602.991 312.346 605.178 302.071 602.245 298.805C599.312 295.54 600.252 278.42 604.73 278.793C609.208 279.166 615.925 292.706 614.806 295.569C613.686 298.433 609.455 313.091 609.455 313.091L602.991 312.346Z" fill="#FBBEBE"/>
<path opacity="0.1" d="M673.215 238.217C672.699 239.133 671.94 239.889 671.021 240.401C670.087 240.829 669.06 241.013 668.036 240.938C667.028 240.944 666.032 240.728 665.117 240.304C662.632 239.067 661.707 236.099 660.542 233.594C660.395 233.142 660.133 232.736 659.781 232.416C659.176 232.141 658.526 231.982 657.863 231.946C656.467 231.633 655.46 230.417 654.818 229.15C654.176 227.882 653.795 226.481 653.064 225.265C652.332 224.05 651.093 222.984 649.668 223.028C648.74 223.151 647.836 223.415 646.988 223.811C645.781 224.198 644.495 224.274 643.25 224.032C642.005 223.789 640.842 223.236 639.868 222.424C639.269 221.774 638.556 221.238 637.764 220.844C637.224 220.686 636.66 220.628 636.099 220.672C635.241 220.672 634.39 220.754 633.532 220.821C633.107 221.378 632.651 221.911 632.166 222.417C633.472 222.305 634.786 222.193 636.099 222.163C636.66 222.119 637.224 222.177 637.764 222.335C638.556 222.729 639.269 223.265 639.868 223.916C640.842 224.728 642.005 225.281 643.25 225.523C644.495 225.766 645.781 225.69 646.988 225.302C647.836 224.906 648.74 224.642 649.668 224.52C651.093 224.52 652.325 225.563 653.064 226.756C653.803 227.949 654.183 229.366 654.818 230.641C655.452 231.916 656.467 233.124 657.863 233.437C658.526 233.473 659.176 233.632 659.781 233.907C660.157 234.212 660.445 234.611 660.617 235.063C661.781 237.575 662.707 240.543 665.192 241.773C666.106 242.196 667.103 242.413 668.11 242.407C669.135 242.482 670.162 242.297 671.096 241.87C672.014 241.357 672.774 240.602 673.29 239.685C674.449 237.578 674.967 235.179 674.783 232.781C674.726 234.696 674.187 236.565 673.215 238.217Z" fill="black"/>
<path d="M606.297 320.495C610.007 320.495 613.015 318.459 613.015 315.947C613.015 313.435 610.007 311.399 606.297 311.399C602.588 311.399 599.58 313.435 599.58 315.947C599.58 318.459 602.588 320.495 606.297 320.495Z" fill="#575A89"/>
<path d="M387.348 569.121C514.511 569.121 617.597 466.137 617.597 339.099C617.597 212.061 514.511 109.076 387.348 109.076C260.185 109.076 157.099 212.061 157.099 339.099C157.099 466.137 260.185 569.121 387.348 569.121Z" fill="#884DFF"/>
<path d="M508.16 454.691C508.16 491.003 451.019 457.793 389.759 457.793C328.499 457.793 266.537 489.631 266.537 453.319C266.537 432.614 286.285 403.818 314.616 382.903C335.962 367.141 362.174 355.853 388.505 355.853C415.583 355.853 442.108 368.073 463.267 384.85C489.971 406.003 508.16 434.426 508.16 454.691Z" fill="#444053"/>
<path d="M463.259 384.835C430.696 379.936 371.802 373.964 314.616 382.889C335.962 367.126 362.174 355.838 388.505 355.838C415.575 355.838 442.1 368.058 463.259 384.835Z" fill="#F6F8FB"/>
<path opacity="0.05" d="M266.537 176.726C266.537 176.726 197.178 221.023 197.745 290.313C198.313 359.603 266.537 176.726 266.537 176.726Z" fill="black"/>
<path d="M617.508 51.6189C617.508 51.6189 554.665 47.8386 562.076 91.83C562.076 91.83 560.584 99.5993 567.659 103.133C567.659 103.133 567.771 99.8752 574.1 100.979C576.356 101.356 578.648 101.466 580.929 101.307C584.012 101.097 586.942 99.8878 589.273 97.862C589.273 97.862 606.939 90.5773 613.813 61.7295C613.813 61.7295 618.896 55.4365 618.694 53.8259L608.089 58.3444C608.089 58.3444 611.709 65.9869 608.835 72.3396C608.835 72.3396 608.492 58.6277 606.454 58.9185C606.044 58.9856 600.946 61.5654 600.946 61.5654C600.946 61.5654 607.178 74.8821 602.439 84.5528C602.439 84.5528 604.223 68.1492 598.961 62.5273L591.497 66.8817C591.497 66.8817 598.782 80.6308 593.841 91.8523C593.841 91.8523 595.11 74.6435 589.93 67.9404L583.161 73.2119C583.161 73.2119 590.005 86.7672 585.833 96.0725C585.833 96.0725 585.288 76.0378 581.698 74.5242C581.698 74.5242 575.779 79.7435 574.876 81.8834C574.876 81.8834 579.563 91.7181 576.66 96.9076C576.66 96.9076 574.876 83.5611 573.413 83.4865C573.413 83.4865 567.517 92.3295 566.898 98.3988C566.898 98.3988 567.159 89.3769 571.98 82.644C571.98 82.644 566.278 83.6207 562.957 87.319C562.957 87.319 563.875 81.0633 573.406 80.519C573.406 80.519 578.28 73.8084 579.586 73.4058C579.586 73.4058 570.07 72.608 564.3 75.1655C564.3 75.1655 569.376 69.2676 581.325 71.9444L588.042 66.5014C588.042 66.5014 575.518 64.7865 570.204 66.6803C570.204 66.6803 576.317 61.461 589.84 65.2637L597.117 60.9167C597.117 60.9167 586.437 58.6202 580.071 59.4255C580.071 59.4255 586.788 55.8093 599.245 59.7312L604.469 57.3974C604.469 57.3974 596.64 55.8615 594.348 55.6229C592.057 55.3843 591.938 54.743 591.938 54.743C596.91 53.9354 602.009 54.5267 606.663 56.4505C606.663 56.4505 617.694 52.3123 617.508 51.6189Z" fill="#884DFF"/>
<path d="M553.053 32.0615C553.053 32.0615 524.692 30.3466 528.005 50.2247C528.005 50.2247 527.341 53.7366 530.528 55.3322C530.528 55.3322 530.573 53.841 533.439 54.3629C534.457 54.5303 535.491 54.5804 536.521 54.512C537.915 54.4126 539.24 53.8661 540.298 52.9537C540.298 52.9537 548.276 49.6581 551.381 36.6247C551.381 36.6247 553.68 33.7839 553.62 33.0532L548.829 35.0962C548.829 35.0962 550.47 38.5484 549.179 41.419C549.179 41.419 549.023 35.223 548.105 35.3721C547.918 35.3721 545.612 36.5651 545.612 36.5651C545.612 36.5651 548.433 42.5822 546.306 46.9515C546.306 46.9515 547.112 39.5401 544.738 36.9975L541.365 38.966C541.365 38.966 544.656 45.1844 542.425 50.2546C542.425 50.2546 542.992 42.4778 540.656 39.4506L537.596 41.8291C537.596 41.8291 540.686 47.9506 538.805 52.1559C538.805 52.1559 538.559 43.1041 536.932 42.4181C536.932 42.4181 534.26 44.7743 533.849 45.7436C533.849 45.7436 535.969 50.2173 534.655 52.5362C534.655 52.5362 533.849 46.5041 533.163 46.4818C533.163 46.4818 530.498 50.4708 530.222 53.1923C530.35 50.6596 531.14 48.2047 532.513 46.0717C530.978 46.3619 529.561 47.0955 528.438 48.1818C528.438 48.1818 528.849 45.3559 533.17 45.1098C533.17 45.1098 535.372 42.0826 535.961 41.8962C535.961 41.8962 531.662 41.5383 529.058 42.694C529.058 42.694 531.349 40.0247 536.753 41.2028L539.738 38.7497C539.738 38.7497 534.081 38.0041 531.677 38.8243C531.677 38.8243 534.439 36.4681 540.551 38.1905L543.835 36.2221C543.835 36.2221 539.014 35.1857 536.133 35.5585C536.133 35.5585 539.171 33.9256 544.798 35.7002L547.149 34.6414C547.149 34.6414 543.611 33.948 542.582 33.8436C541.552 33.7392 541.484 33.4484 541.484 33.4484C543.725 33.076 546.025 33.3342 548.127 34.194C548.127 34.194 553.135 32.3747 553.053 32.0615Z" fill="#884DFF"/>
<path opacity="0.1" d="M800.901 544.307C812.001 544.307 821 542.788 821 540.914C821 539.04 812.001 537.521 800.901 537.521C789.8 537.521 780.802 539.04 780.802 540.914C780.802 542.788 789.8 544.307 800.901 544.307Z" fill="#884DFF"/>
<path opacity="0.1" d="M34.9068 600.743C46.0073 600.743 55.006 599.224 55.006 597.35C55.006 595.476 46.0073 593.958 34.9068 593.958C23.8063 593.958 14.8076 595.476 14.8076 597.35C14.8076 599.224 23.8063 600.743 34.9068 600.743Z" fill="#884DFF"/>
<path opacity="0.1" d="M151.584 605C162.684 605 171.683 603.481 171.683 601.607C171.683 599.734 162.684 598.215 151.584 598.215C140.483 598.215 131.484 599.734 131.484 601.607C131.484 603.481 140.483 605 151.584 605Z" fill="#884DFF"/>
<path d="M756.911 582.341C773.485 582.341 786.922 580.071 786.922 577.27C786.922 574.47 773.485 572.2 756.911 572.2C740.336 572.2 726.9 574.47 726.9 577.27C726.9 580.071 740.336 582.341 756.911 582.341Z" fill="#884DFF"/>
<path d="M769.315 568.987C770.685 567.87 771.684 566.365 772.181 564.67C772.547 562.962 771.816 560.905 770.181 560.278C768.345 559.577 766.382 560.852 764.897 562.135C763.412 563.417 761.702 564.879 759.754 564.61C760.756 563.704 761.506 562.554 761.93 561.272C762.353 559.99 762.437 558.62 762.173 557.296C762.088 556.747 761.856 556.232 761.501 555.805C760.479 554.716 758.635 555.178 757.411 556.036C753.53 558.765 752.448 564.029 752.425 568.771C752.037 567.063 752.366 565.281 752.358 563.552C752.351 561.822 751.866 559.823 750.388 558.906C749.471 558.417 748.442 558.175 747.402 558.205C745.656 558.138 743.715 558.31 742.521 559.585C741.029 561.173 741.424 563.827 742.715 565.55C744.007 567.272 745.962 568.391 747.761 569.591C749.208 570.451 750.443 571.626 751.373 573.028C751.482 573.226 751.572 573.433 751.642 573.647H762.576C765.022 572.405 767.289 570.837 769.315 568.987Z" fill="#884DFF"/>
<path d="M44.2884 506.467C44.2884 506.467 48.3859 511.82 42.3927 519.888C36.3995 527.955 31.4587 534.8 33.4365 539.841C33.4365 539.841 42.4748 524.824 49.8562 524.608C57.2376 524.391 52.3788 515.496 44.2884 506.467Z" fill="#884DFF"/>
<path opacity="0.1" d="M44.2884 506.467C44.6442 506.984 44.9256 507.549 45.1243 508.144C52.3042 516.57 56.1255 524.436 49.2292 524.63C42.7957 524.816 35.0486 536.299 33.235 539.199C33.2984 539.424 33.3731 539.646 33.4589 539.863C33.4589 539.863 42.4972 524.846 49.8786 524.63C57.26 524.414 52.3788 515.496 44.2884 506.467Z" fill="black"/>
<path d="M51.9087 513.29C51.9087 515.176 51.6922 516.705 51.431 516.705C51.1698 516.705 50.9608 515.213 50.9608 513.29C50.9608 511.366 51.222 512.29 51.4907 512.29C51.7594 512.29 51.9087 511.403 51.9087 513.29Z" fill="#FFD037"/>
<path d="M54.491 515.541C52.8341 516.443 51.3937 516.988 51.2668 516.756C51.1399 516.525 52.3863 515.616 54.0432 514.713C55.7001 513.811 55.0433 514.467 55.1702 514.713C55.2971 514.959 56.1778 514.639 54.491 515.541Z" fill="#FFD037"/>
<path d="M22.6293 506.467C22.6293 506.467 18.5319 511.82 24.5176 519.888C30.5033 527.955 35.4516 534.8 33.4738 539.841C33.4738 539.841 24.428 524.824 17.0541 524.608C9.68016 524.391 14.5314 515.496 22.6293 506.467Z" fill="#884DFF"/>
<path opacity="0.1" d="M22.6293 506.467C22.2702 506.982 21.9886 507.547 21.7934 508.144C14.6135 516.57 10.7848 524.436 17.6885 524.63C24.1146 524.816 31.8691 536.299 33.6753 539.199C33.6144 539.424 33.5422 539.646 33.4589 539.863C33.4589 539.863 24.4131 524.846 17.0392 524.63C9.66523 524.414 14.5314 515.496 22.6293 506.467Z" fill="black"/>
<path d="M15.0091 513.29C15.0091 515.176 15.2181 516.705 15.4793 516.705C15.7405 516.705 15.9495 515.213 15.9495 513.29C15.9495 511.366 15.6883 512.29 15.4271 512.29C15.1658 512.29 15.0091 511.403 15.0091 513.29Z" fill="#FFD037"/>
<path d="M12.3894 515.541C14.0463 516.443 15.4942 516.988 15.6211 516.756C15.748 516.525 14.5016 515.616 12.8447 514.713C11.1878 513.811 11.8371 514.467 11.7177 514.713C11.5983 514.959 10.7325 514.639 12.3894 515.541Z" fill="#FFD037"/>
<path d="M16.3152 539.162C16.3152 539.162 27.7791 538.812 31.2422 536.351C34.7053 533.891 48.8785 530.96 49.7368 534.86C50.5951 538.76 66.9625 554.47 54.0208 554.574C41.0791 554.678 23.9504 552.553 20.5022 550.458C17.0541 548.363 16.3152 539.162 16.3152 539.162Z" fill="#A8A8A8"/>
<path opacity="0.2" d="M54.2373 553.24C41.2955 553.344 24.1668 551.219 20.7187 549.124C18.0915 547.528 17.0466 541.794 16.6958 539.147H16.3152C16.3152 539.147 17.0616 548.386 20.4873 550.481C23.9131 552.576 41.0642 554.701 54.0059 554.597C57.7376 554.597 59.0288 553.232 58.9617 551.271C58.4392 552.472 57.0211 553.217 54.2373 553.24Z" fill="black"/>
<path d="M305.489 308.938C309.87 308.692 330.491 307.141 343.59 299.678C345.693 298.441 348.07 297.742 350.508 297.642C354.673 297.523 359.465 299.26 356.397 308.983C351.426 324.887 322.565 342.782 304.653 341.79C287.427 340.836 266.992 333.902 253.498 309.52C252.205 307.174 251.568 304.524 251.654 301.848C251.811 296.926 253.602 290.76 262.85 297.635C275.343 306.918 299.048 308.677 303.802 308.938C304.364 308.968 304.927 308.968 305.489 308.938Z" fill="#444053"/>
<path d="M471.178 308.938C475.559 308.692 496.181 307.141 509.279 299.678C511.383 298.441 513.759 297.742 516.198 297.642C520.363 297.523 525.154 299.26 522.087 308.983C517.116 324.887 488.255 342.782 470.342 341.79C453.117 340.836 432.682 333.902 419.188 309.52C417.895 307.174 417.258 304.524 417.344 301.848C417.501 296.926 419.292 290.76 428.539 297.635C441.033 306.918 464.737 308.677 469.491 308.938C470.053 308.968 470.616 308.968 471.178 308.938Z" fill="#444053"/>
</g>
<defs>
<linearGradient id="paint0_linear_1601_2093" x1="665.849" y1="565.169" x2="665.849" y2="196.805" gradientUnits="userSpaceOnUse">
<stop stop-color="#808080" stop-opacity="0.25"/>
<stop offset="0.54" stop-color="#808080" stop-opacity="0.12"/>
<stop offset="1" stop-color="#808080" stop-opacity="0.1"/>
</linearGradient>
<clipPath id="clip0_1601_2093">
<rect width="821" height="605" fill="white"/>
</clipPath>
</defs>
</svg>
